<svg width="26" height="18" viewBox="0 0 26 18" fill="none" xmlns="http://www.w3.org/2000/svg">
<path fill-rule="evenodd" clip-rule="evenodd" d="M21.4008 7.89806C20.8514 3.43013 17.0068 0 12.4348 0C7.74291 0 3.86778 3.55387 3.44104 8.16244C1.39552 8.85713 0 10.7657 0 12.9375C0 15.7286 2.28178 18 5.08696 18H20.913C23.7182 18 26 15.7286 26 12.9375C26 10.3101 23.9782 8.14331 21.4008 7.89806ZM17.927 11.3906C17.3477 13.626 15.3219 15.1875 13 15.1875C11.674 15.1875 10.4164 14.6632 9.47983 13.7711L7.91361 15.1875L8.09448 11.43L11.8696 11.61L10.3203 13.0112C11.0427 13.6727 11.995 14.0625 13 14.0625C14.8059 14.0625 16.3817 12.8481 16.8316 11.1094C16.9096 10.8084 17.2216 10.629 17.52 10.7049C17.8224 10.7826 18.0044 11.0891 17.927 11.3906ZM14.1304 8.64L17.9061 8.82L18.0864 5.0625L16.5207 6.47831C15.5774 5.57662 14.3181 5.0625 13 5.0625C10.6775 5.0625 8.65122 6.624 8.073 8.85994C7.99557 9.16031 8.17757 9.46744 8.47996 9.5445C8.52687 9.55688 8.57435 9.5625 8.62126 9.5625C8.87278 9.5625 9.10226 9.39431 9.16839 9.14062C9.61774 7.40194 11.1936 6.1875 13 6.1875C13.9999 6.1875 14.9573 6.5655 15.6848 7.23431L14.1304 8.64Z" fill="#0F53FA"/>
</svg>
