<svg width="21" height="21" viewBox="0 0 21 21" fill="none" xmlns="http://www.w3.org/2000/svg">
<path opacity="0.5" d="M20.0588 5H16.2941V15.3529C16.2941 15.8729 15.8729 16.2941 15.3529 16.2941H5V20.0588C5 20.5788 5.42118 21 5.94118 21H20.0588C20.5788 21 21 20.5788 21 20.0588V5.94118C21 5.42118 20.5788 5 20.0588 5Z" fill="#0F53FA"/>
<path d="M15.0588 16H0.941176C0.421176 16 0 15.5788 0 15.0588V0.941176C0 0.421176 0.421176 0 0.941176 0H15.0588C15.5788 0 16 0.421176 16 0.941176V15.0588C16 15.5788 15.5788 16 15.0588 16Z" fill="#0F53FA"/>
</svg>
