<svg width="16" height="13" viewBox="0 0 16 13" fill="none" xmlns="http://www.w3.org/2000/svg">
<path d="M16 1.50773C15.4 1.77577 14.7667 1.9433 14.1 2.04381C14.7667 1.64175 15.3 1.00515 15.5333 0.234536C14.9 0.603093 14.2 0.871134 13.4333 1.03866C12.8333 0.402062 11.9667 0 11.0333 0C9.23333 0 7.76667 1.47423 7.76667 3.28351C7.76667 3.55155 7.8 3.78608 7.86667 4.02062C5.16667 3.8866 2.73333 2.5799 1.1 0.569588C0.833333 1.07217 0.666667 1.60825 0.666667 2.21134C0.666667 3.35052 1.23333 4.35567 2.13333 4.95876C1.6 4.92526 1.1 4.79124 0.633333 4.5567V4.59021C0.633333 6.19845 1.76667 7.53866 3.26667 7.84021C3 7.90722 2.7 7.94072 2.4 7.94072C2.2 7.94072 1.96667 7.90722 1.76667 7.87371C2.2 9.18041 3.4 10.1521 4.83333 10.1521C3.7 11.0232 2.3 11.5593 0.766667 11.5593C0.5 11.5593 0.233333 11.5593 0 11.5258C1.46667 12.4639 3.16667 13 5.03333 13C11.0667 13 14.3667 7.97423 14.3667 3.61856C14.3667 3.48454 14.3667 3.31701 14.3667 3.18299C15 2.74742 15.5667 2.17783 16 1.50773Z" fill="#21C6DD"/>
</svg>
