<svg width="16" height="20" viewBox="0 0 16 20" fill="none" xmlns="http://www.w3.org/2000/svg">
<path d="M3.6 11H0.4C0.1792 11 0 11.2016 0 11.45V19.55C0 19.7984 0.1792 20 0.4 20H3.6C3.8208 20 4 19.7984 4 19.55V11.45C4 11.2016 3.8208 11 3.6 11Z" fill="#0F53FA"/>
<path d="M15.8989 6.67935L10.3605 0.154954C10.1856 -0.0516515 9.81451 -0.0516515 9.63959 0.154954L4.10119 6.67935C3.99042 6.80984 3.96873 6.98861 4.04534 7.13954C4.12242 7.29047 4.28442 7.38616 4.46165 7.38616H7.69238V19.565C7.69238 19.8051 7.89915 20 8.15392 20H11.8462C12.101 20 12.3077 19.8051 12.3077 19.565V7.38616H15.5385C15.7157 7.38616 15.8777 7.29047 15.9543 7.13954C16.0314 6.98904 16.0097 6.80984 15.8989 6.67935Z" fill="#0F53FA"/>
</svg>
