<svg width="24" height="20" viewBox="0 0 24 20" fill="none" xmlns="http://www.w3.org/2000/svg">
<path d="M13.4615 15.5H8.57823C8.31169 13.53 6.50031 12 4.30769 12C1.93254 12 0 13.7945 0 16C0 18.2055 1.93254 20 4.30769 20C6.50031 20 8.31169 18.47 8.57823 16.5H13.4615C13.7593 16.5 14 16.2765 14 16C14 15.7235 13.7593 15.5 13.4615 15.5Z" fill="#0F53FA"/>
<path d="M19.7908 11.9887C19.16 11.9887 18.5638 12.1249 18.0261 12.3627L15.972 9.23529C15.8184 9.00096 15.4938 8.92936 15.247 9.07656C15.0008 9.22277 14.9261 9.53171 15.0802 9.76654L17.1332 12.892C16.1872 13.627 15.5816 14.7441 15.5816 15.9943C15.5816 18.203 17.47 20 19.7908 20C22.1117 20 24 18.203 24 15.9943C24 13.7857 22.1117 11.9887 19.7908 11.9887Z" fill="#0F53FA"/>
<path d="M11.7648 0C9.42956 0 7.52952 1.81105 7.52952 4.03688C7.52952 5.29689 8.13887 6.42268 9.09021 7.16345L7.08059 10.2279C6.92547 10.4646 7.00118 10.776 7.24841 10.9233C7.33576 10.9758 7.43317 11 7.52847 11C7.70476 11 7.87734 10.9162 7.97793 10.7628L9.98914 7.69632C10.5302 7.93651 11.13 8.07376 11.7648 8.07376C14.1 8.07376 16 6.26272 16 4.03688C16 1.81105 14.1 0 11.7648 0Z" fill="#0F53FA"/>
</svg>
